<?xml version="1.0" standalone="no"?>
<!DOCTYPE svg PUBLIC "-//W3C//DTD SVG 20010904//EN"
 "http://www.w3.org/TR/2001/REC-SVG-20010904/DTD/svg10.dtd">
<svg version="1.0" xmlns="http://www.w3.org/2000/svg"
 width="132.000000pt" height="132.000000pt" viewBox="0 0 132.000000 132.000000"
 preserveAspectRatio="xMidYMid meet">
<metadata>
Created by potrace 1.14, written by Peter Selinger 2001-2017
</metadata>
<g transform="translate(0.000000,132.000000) scale(0.100000,-0.100000)"
fill="#000000" stroke="none">
<path d="M802 1215 c-87 -49 -126 -119 -126 -225 -1 -65 3 -84 32 -141 18 -36
40 -90 50 -120 16 -47 23 -54 50 -60 l32 -6 0 188 c0 179 -1 189 -19 189 -10
0 -21 -6 -23 -12 -2 -7 -4 -75 -3 -150 1 -131 -5 -165 -21 -115 -3 12 -23 55
-42 96 -46 96 -47 165 -5 243 59 108 173 140 269 76 65 -44 97 -106 97 -191 0
-54 -5 -73 -46 -154 -26 -50 -47 -96 -47 -103 0 -6 -4 -9 -9 -6 -5 3 -8 63 -8
133 l2 128 27 3 c22 3 27 8 24 25 -3 20 -9 22 -76 22 -67 0 -73 -2 -76 -22 -3
-17 2 -22 24 -25 l27 -3 0 -160 0 -160 34 0 c31 1 36 5 48 40 7 22 32 78 55
124 27 54 43 101 46 135 16 191 -167 336 -316 251z"/>
<path d="M805 620 c3 -5 46 -10 96 -10 53 0 89 4 89 10 0 6 -39 10 -96 10 -61
0 -93 -4 -89 -10z"/>
<path d="M813 579 c-15 -5 -15 -6 1 -12 27 -11 164 -8 171 3 4 6 -6 10 -22 11
-15 0 -52 1 -81 2 -29 1 -60 -1 -69 -4z"/>
<path d="M810 530 c1 -10 35 -46 54 -57 25 -14 65 -2 101 31 24 22 25 26 9 27
-10 0 -52 1 -91 2 -40 2 -73 0 -73 -3z"/>
<path d="M29 400 c-45 -45 -38 -80 32 -157 40 -44 51 -86 24 -97 -9 -3 -21 4
-31 19 -16 25 -54 35 -54 15 0 -6 7 -24 15 -40 28 -53 104 -49 126 6 14 38 -3
82 -51 132 -26 26 -40 51 -40 67 0 31 28 45 45 22 16 -23 45 -22 45 1 0 23
-26 47 -59 55 -18 4 -31 -2 -52 -23z"/>
<path d="M234 420 c-39 -15 -46 -36 -48 -145 -1 -64 3 -117 10 -134 22 -53 96
-53 118 -1 19 46 13 236 -8 259 -21 23 -46 30 -72 21z m44 -159 c-3 -98 -4
-106 -23 -106 -19 0 -20 8 -23 104 -3 106 3 126 35 114 10 -4 13 -29 11 -112z"/>
<path d="M1004 420 c-40 -15 -47 -36 -48 -146 -2 -145 20 -187 90 -170 39 10
51 49 49 168 -1 87 -5 111 -19 127 -21 23 -45 30 -72 21z m35 -54 c8 -9 11
-48 9 -112 -3 -91 -5 -99 -23 -99 -18 0 -20 8 -23 99 -1 55 0 106 2 113 7 17
21 17 35 -1z"/>
<path d="M367 278 c0 -79 2 -150 2 -159 1 -13 13 -16 59 -15 50 1 57 4 57 21
0 16 -8 21 -37 23 l-38 3 0 135 c0 132 0 134 -22 134 -23 0 -23 -1 -21 -142z"/>
<path d="M520 281 c0 -139 0 -140 26 -160 33 -26 55 -26 85 -2 23 18 24 26 27
160 l4 141 -24 0 c-24 0 -24 0 -24 -125 0 -128 -7 -154 -38 -142 -13 5 -16 28
-16 137 0 123 -1 130 -20 130 -19 0 -20 -7 -20 -139z"/>
<path d="M697 396 c4 -17 10 -22 24 -19 22 6 21 16 21 -148 1 -110 3 -126 17
-125 9 0 19 4 22 9 3 4 5 63 4 132 -1 98 2 125 13 130 8 3 18 3 23 -1 5 -3 9
6 9 20 0 25 -2 26 -69 26 -67 0 -68 -1 -64 -24z"/>
<path d="M872 263 c3 -140 5 -156 21 -159 10 -1 17 4 17 14 1 31 1 267 1 285
-1 10 -9 17 -21 17 -20 0 -20 -5 -18 -157z"/>
<path d="M1139 408 c0 -20 -1 -261 0 -285 1 -14 7 -20 19 -19 14 2 18 17 22
87 3 46 8 80 11 74 4 -5 16 -44 29 -86 19 -65 25 -75 43 -74 21 2 22 6 25 159
l3 157 -23 -3 c-21 -3 -22 -8 -22 -85 1 -89 -9 -106 -25 -45 -6 20 -16 58 -23
85 -10 39 -16 47 -35 47 -13 0 -23 -6 -24 -12z"/>
</g>
</svg>
